<svg xmlns="http://www.w3.org/2000/svg" viewBox="0 0 470 200" fill="none">
  <!-- S -->
  <path d="M 30 60
    C 30 35, 55 20, 85 20
    L 140 20
    C 165 20, 178 35, 178 55
    C 178 75, 163 88, 140 93
    L 80 105
    C 55 110, 38 125, 38 148
    C 38 172, 58 185, 85 185
    L 148 185
    C 172 185, 185 170, 185 155"
    stroke="#1565C0" stroke-width="28" stroke-linecap="round" stroke-linejoin="round" fill="none"/>

  <!-- i izquierdo — cuerpo -->
  <rect x="208" y="85" width="28" height="100" rx="14" fill="#1565C0"/>
  <!-- i izquierdo — punto naranjo -->
  <circle cx="222" cy="38" r="24" fill="#E8593C"/>

  <!-- i derecho — cuerpo -->
  <rect x="268" y="85" width="28" height="100" rx="14" fill="#1565C0"/>
  <!-- i derecho — punto naranjo -->
  <circle cx="282" cy="38" r="24" fill="#E8593C"/>

  <!-- Texto "Servicio de" -->
  <text x="320" y="80" font-family="Arial, Helvetica, sans-serif" font-size="44" font-weight="700" fill="#686868">Servicio de</text>
  <!-- Texto "Impuestos" -->
  <text x="320" y="130" font-family="Arial, Helvetica, sans-serif" font-size="44" font-weight="700" fill="#686868">Impuestos</text>
  <!-- Texto "Internos" -->
  <text x="320" y="180" font-family="Arial, Helvetica, sans-serif" font-size="44" font-weight="700" fill="#686868">Internos</text>
</svg>
